<svg width="140" height="40" viewBox="0 0 140 40" fill="none" xmlns="http://www.w3.org/2000/svg">
<path d="M46.71 25.9615C46.578 25.9615 46.47 25.9195 46.386 25.8355C46.302 25.7515 46.26 25.6435 46.26 25.5115V13.8115C46.26 13.6795 46.302 13.5715 46.386 13.4875C46.47 13.4035 46.578 13.3615 46.71 13.3615H55.116C55.248 13.3615 55.356 13.4035 55.44 13.4875C55.524 13.5715 55.566 13.6795 55.566 13.8115V15.5035C55.566 15.6355 55.524 15.7435 55.44 15.8275C55.356 15.9115 55.248 15.9535 55.116 15.9535H49.374V18.3835H54.72C54.852 18.3835 54.96 18.4315 55.044 18.5275C55.128 18.6115 55.17 18.7195 55.17 18.8515V20.4175C55.17 20.5375 55.128 20.6455 55.044 20.7415C54.96 20.8255 54.852 20.8675 54.72 20.8675H49.374V23.3695H55.26C55.392 23.3695 55.5 23.4115 55.584 23.4955C55.668 23.5795 55.71 23.6875 55.71 23.8195V25.5115C55.71 25.6435 55.668 25.7515 55.584 25.8355C55.5 25.9195 55.392 25.9615 55.26 25.9615H46.71ZM60.9974 26.1415C60.4214 26.1415 59.8994 26.0515 59.4314 25.8715C58.9754 25.6795 58.5794 25.4035 58.2434 25.0435C57.9194 24.6715 57.6674 24.2275 57.4874 23.7115C57.3074 23.1835 57.2054 22.5835 57.1814 21.9115C57.1694 21.6715 57.1634 21.4615 57.1634 21.2815C57.1634 21.0895 57.1694 20.8795 57.1814 20.6515C57.2054 20.0035 57.3074 19.4215 57.4874 18.9055C57.6674 18.3895 57.9194 17.9455 58.2434 17.5735C58.5674 17.2015 58.9634 16.9195 59.4314 16.7275C59.8994 16.5235 60.4214 16.4215 60.9974 16.4215C61.5974 16.4215 62.1134 16.5235 62.5454 16.7275C62.9774 16.9195 63.3434 17.1715 63.6434 17.4835V13.6315C63.6434 13.4995 63.6854 13.3915 63.7694 13.3075C63.8534 13.2235 63.9614 13.1815 64.0934 13.1815H66.2894C66.4094 13.1815 66.5114 13.2235 66.5954 13.3075C66.6914 13.3915 66.7394 13.4995 66.7394 13.6315V25.5115C66.7394 25.6435 66.6914 25.7515 66.5954 25.8355C66.5114 25.9195 66.4094 25.9615 66.2894 25.9615H64.2554C64.1234 25.9615 64.0154 25.9195 63.9314 25.8355C63.8474 25.7515 63.8054 25.6435 63.8054 25.5115V24.9355C63.5174 25.2835 63.1454 25.5715 62.6894 25.7995C62.2334 26.0275 61.6694 26.1415 60.9974 26.1415ZM61.9694 23.7295C62.3774 23.7295 62.6954 23.6455 62.9234 23.4775C63.1634 23.2975 63.3374 23.0695 63.4454 22.7935C63.5654 22.5175 63.6314 22.2175 63.6434 21.8935C63.6554 21.6535 63.6614 21.4255 63.6614 21.2095C63.6614 20.9935 63.6554 20.7715 63.6434 20.5435C63.6314 20.2435 63.5654 19.9675 63.4454 19.7155C63.3254 19.4515 63.1454 19.2415 62.9054 19.0855C62.6654 18.9175 62.3534 18.8335 61.9694 18.8335C61.5734 18.8335 61.2554 18.9175 61.0154 19.0855C60.7874 19.2535 60.6254 19.4815 60.5294 19.7695C60.4334 20.0575 60.3734 20.3755 60.3494 20.7235C60.3134 21.0955 60.3134 21.4675 60.3494 21.8395C60.3734 22.1875 60.4334 22.5055 60.5294 22.7935C60.6254 23.0815 60.7874 23.3095 61.0154 23.4775C61.2554 23.6455 61.5734 23.7295 61.9694 23.7295ZM73.1808 26.1415C71.7648 26.1415 70.6368 25.7575 69.7968 24.9895C68.9568 24.2215 68.5188 23.0815 68.4828 21.5695C68.4828 21.4855 68.4828 21.3775 68.4828 21.2455C68.4828 21.1135 68.4828 21.0115 68.4828 20.9395C68.5188 19.9915 68.7288 19.1815 69.1128 18.5095C69.5088 17.8255 70.0488 17.3095 70.7328 16.9615C71.4288 16.6015 72.2388 16.4215 73.1628 16.4215C74.2188 16.4215 75.0888 16.6315 75.7728 17.0515C76.4688 17.4715 76.9908 18.0415 77.3388 18.7615C77.6868 19.4815 77.8608 20.3035 77.8608 21.2275V21.6595C77.8608 21.7915 77.8128 21.8995 77.7168 21.9835C77.6328 22.0675 77.5308 22.1095 77.4108 22.1095H71.6508C71.6508 22.1215 71.6508 22.1395 71.6508 22.1635C71.6508 22.1875 71.6508 22.2115 71.6508 22.2355C71.6628 22.5835 71.7228 22.9015 71.8308 23.1895C71.9388 23.4775 72.1068 23.7055 72.3348 23.8735C72.5628 24.0415 72.8388 24.1255 73.1628 24.1255C73.4028 24.1255 73.6008 24.0895 73.7568 24.0175C73.9248 23.9335 74.0628 23.8435 74.1708 23.7475C74.2788 23.6395 74.3628 23.5495 74.4228 23.4775C74.5308 23.3575 74.6148 23.2855 74.6748 23.2615C74.7468 23.2255 74.8548 23.2075 74.9988 23.2075H77.2308C77.3508 23.2075 77.4468 23.2435 77.5188 23.3155C77.6028 23.3755 77.6388 23.4655 77.6268 23.5855C77.6148 23.7895 77.5128 24.0355 77.3208 24.3235C77.1288 24.6115 76.8468 24.8995 76.4748 25.1875C76.1148 25.4635 75.6588 25.6915 75.1068 25.8715C74.5548 26.0515 73.9128 26.1415 73.1808 26.1415ZM71.6508 20.3275H74.6928V20.2915C74.6928 19.9075 74.6328 19.5715 74.5128 19.2835C74.4048 18.9955 74.2308 18.7735 73.9908 18.6175C73.7628 18.4615 73.4868 18.3835 73.1628 18.3835C72.8388 18.3835 72.5628 18.4615 72.3348 18.6175C72.1188 18.7735 71.9508 18.9955 71.8308 19.2835C71.7108 19.5715 71.6508 19.9075 71.6508 20.2915V20.3275ZM79.9983 25.9615C79.8663 25.9615 79.7583 25.9195 79.6743 25.8355C79.5903 25.7515 79.5483 25.6435 79.5483 25.5115V13.6315C79.5483 13.4995 79.5903 13.3915 79.6743 13.3075C79.7583 13.2235 79.8663 13.1815 79.9983 13.1815H82.1223C82.2543 13.1815 82.3623 13.2235 82.4463 13.3075C82.5303 13.3915 82.5723 13.4995 82.5723 13.6315V25.5115C82.5723 25.6435 82.5303 25.7515 82.4463 25.8355C82.3623 25.9195 82.2543 25.9615 82.1223 25.9615H79.9983Z" fill="#1E9C9C"/>
<path d="M86.9127 25.9615C86.7087 25.9615 86.5467 25.9015 86.4267 25.7815C86.3067 25.6615 86.2347 25.5235 86.2107 25.3675L84.2487 13.8655C84.2367 13.8415 84.2307 13.8175 84.2307 13.7935C84.2307 13.7695 84.2307 13.7515 84.2307 13.7395C84.2307 13.6435 84.2667 13.5595 84.3387 13.4875C84.4227 13.4035 84.5127 13.3615 84.6087 13.3615H86.8407C87.1767 13.3615 87.3627 13.4935 87.3987 13.7575L88.5687 20.7955L89.8647 16.6375C89.9007 16.5415 89.9607 16.4395 90.0447 16.3315C90.1287 16.2115 90.2667 16.1515 90.4587 16.1515H91.7547C91.9587 16.1515 92.1027 16.2115 92.1867 16.3315C92.2707 16.4395 92.3247 16.5415 92.3487 16.6375L93.6447 20.7775L94.8147 13.7575C94.8507 13.4935 95.0367 13.3615 95.3727 13.3615H97.6047C97.7127 13.3615 97.8027 13.4035 97.8747 13.4875C97.9467 13.5595 97.9827 13.6435 97.9827 13.7395C97.9827 13.7515 97.9827 13.7695 97.9827 13.7935C97.9827 13.8175 97.9827 13.8415 97.9827 13.8655L96.0207 25.3675C95.9967 25.5235 95.9247 25.6615 95.8047 25.7815C95.6847 25.9015 95.5227 25.9615 95.3187 25.9615H93.6087C93.4047 25.9615 93.2487 25.9075 93.1407 25.7995C93.0327 25.6915 92.9607 25.5895 92.9247 25.4935L91.1067 20.3455L89.2887 25.4935C89.2527 25.5895 89.1807 25.6915 89.0727 25.7995C88.9767 25.9075 88.8267 25.9615 88.6227 25.9615H86.9127ZM102.079 26.1415C101.431 26.1415 100.849 26.0215 100.333 25.7815C99.829 25.5295 99.427 25.1935 99.127 24.7735C98.827 24.3535 98.677 23.8795 98.677 23.3515C98.677 22.4995 99.025 21.8275 99.721 21.3355C100.417 20.8315 101.341 20.4895 102.493 20.3095L104.743 19.9675V19.7155C104.743 19.2835 104.653 18.9535 104.473 18.7255C104.293 18.4975 103.963 18.3835 103.483 18.3835C103.147 18.3835 102.871 18.4495 102.655 18.5815C102.451 18.7135 102.289 18.8935 102.169 19.1215C102.061 19.2775 101.911 19.3555 101.719 19.3555H99.703C99.571 19.3555 99.469 19.3195 99.397 19.2475C99.325 19.1635 99.295 19.0675 99.307 18.9595C99.307 18.7435 99.385 18.4975 99.541 18.2215C99.709 17.9335 99.961 17.6515 100.297 17.3755C100.633 17.0995 101.065 16.8715 101.593 16.6915C102.121 16.5115 102.757 16.4215 103.501 16.4215C104.281 16.4215 104.947 16.5115 105.499 16.6915C106.051 16.8715 106.495 17.1235 106.831 17.4475C107.179 17.7715 107.437 18.1555 107.605 18.5995C107.773 19.0315 107.857 19.5115 107.857 20.0395V25.5115C107.857 25.6435 107.809 25.7515 107.713 25.8355C107.629 25.9195 107.527 25.9615 107.407 25.9615H105.319C105.187 25.9615 105.079 25.9195 104.995 25.8355C104.911 25.7515 104.869 25.6435 104.869 25.5115V24.8815C104.713 25.1095 104.503 25.3195 104.239 25.5115C103.975 25.7035 103.663 25.8535 103.303 25.9615C102.955 26.0815 102.547 26.1415 102.079 26.1415ZM102.925 24.0895C103.273 24.0895 103.585 24.0175 103.861 23.8735C104.149 23.7175 104.371 23.4835 104.527 23.1715C104.695 22.8475 104.779 22.4455 104.779 21.9655V21.7135L103.249 21.9835C102.685 22.0795 102.271 22.2295 102.007 22.4335C101.755 22.6255 101.629 22.8535 101.629 23.1175C101.629 23.3215 101.689 23.4955 101.809 23.6395C101.929 23.7835 102.085 23.8975 102.277 23.9815C102.469 24.0535 102.685 24.0895 102.925 24.0895ZM111.335 29.3815C111.227 29.3815 111.137 29.3455 111.065 29.2735C110.993 29.2015 110.957 29.1115 110.957 29.0035C110.957 28.9795 110.957 28.9435 110.957 28.8955C110.969 28.8595 110.987 28.8175 111.011 28.7695L112.415 25.3855L108.959 17.2135C108.923 17.1295 108.905 17.0575 108.905 16.9975C108.929 16.8895 108.977 16.7995 109.049 16.7275C109.121 16.6435 109.211 16.6015 109.319 16.6015H111.371C111.527 16.6015 111.641 16.6435 111.713 16.7275C111.797 16.7995 111.851 16.8835 111.875 16.9795L113.945 22.2175L116.051 16.9795C116.099 16.8835 116.159 16.7995 116.231 16.7275C116.315 16.6435 116.435 16.6015 116.591 16.6015H118.607C118.715 16.6015 118.805 16.6435 118.877 16.7275C118.961 16.7995 119.003 16.8835 119.003 16.9795C119.003 17.0395 118.985 17.1175 118.949 17.2135L113.855 29.0035C113.819 29.0995 113.759 29.1835 113.675 29.2555C113.591 29.3395 113.471 29.3815 113.315 29.3815H111.335ZM123.883 26.1415C123.103 26.1415 122.437 26.0575 121.885 25.8895C121.345 25.7095 120.901 25.4935 120.553 25.2415C120.217 24.9895 119.965 24.7315 119.797 24.4675C119.629 24.1915 119.539 23.9575 119.527 23.7655C119.515 23.6335 119.557 23.5255 119.653 23.4415C119.749 23.3455 119.851 23.2975 119.959 23.2975H122.011C122.047 23.2975 122.077 23.3035 122.101 23.3155C122.125 23.3275 122.161 23.3515 122.209 23.3875C122.365 23.4715 122.521 23.5795 122.677 23.7115C122.833 23.8315 123.013 23.9395 123.217 24.0355C123.421 24.1315 123.667 24.1795 123.955 24.1795C124.291 24.1795 124.573 24.1135 124.801 23.9815C125.029 23.8495 125.143 23.6515 125.143 23.3875C125.143 23.1955 125.089 23.0395 124.981 22.9195C124.873 22.7875 124.651 22.6615 124.315 22.5415C123.991 22.4215 123.499 22.3015 122.839 22.1815C122.215 22.0375 121.669 21.8515 121.201 21.6235C120.733 21.3835 120.373 21.0775 120.121 20.7055C119.869 20.3215 119.743 19.8595 119.743 19.3195C119.743 18.8395 119.899 18.3775 120.211 17.9335C120.523 17.4895 120.979 17.1295 121.579 16.8535C122.179 16.5655 122.917 16.4215 123.793 16.4215C124.489 16.4215 125.089 16.5055 125.593 16.6735C126.109 16.8295 126.541 17.0335 126.889 17.2855C127.249 17.5375 127.519 17.7955 127.699 18.0595C127.879 18.3235 127.975 18.5635 127.987 18.7795C127.999 18.8995 127.963 19.0075 127.879 19.1035C127.795 19.1875 127.699 19.2295 127.591 19.2295H125.719C125.671 19.2295 125.623 19.2235 125.575 19.2115C125.527 19.1875 125.485 19.1635 125.449 19.1395C125.305 19.0675 125.161 18.9715 125.017 18.8515C124.873 18.7315 124.705 18.6235 124.513 18.5275C124.321 18.4315 124.081 18.3835 123.793 18.3835C123.469 18.3835 123.217 18.4555 123.037 18.5995C122.857 18.7435 122.767 18.9295 122.767 19.1575C122.767 19.3135 122.815 19.4575 122.911 19.5895C123.019 19.7215 123.229 19.8415 123.541 19.9495C123.865 20.0575 124.363 20.1775 125.035 20.3095C125.863 20.4415 126.523 20.6575 127.015 20.9575C127.507 21.2455 127.855 21.5875 128.059 21.9835C128.263 22.3675 128.365 22.7755 128.365 23.2075C128.365 23.7835 128.191 24.2935 127.843 24.7375C127.507 25.1815 127.003 25.5295 126.331 25.7815C125.659 26.0215 124.843 26.1415 123.883 26.1415Z" fill="#27D2C8"/>
<path d="M19.2208 4.98869C20.6455 4.48917 22.2113 5.16285 22.7174 6.49273C23.1048 7.51091 22.7581 8.61769 21.9363 9.30529L22.3804 10.5163L23.0869 11.3316C23.2482 11.5182 23.4928 11.6074 23.738 11.5772C24.3991 11.4959 25.056 11.4928 25.6993 11.5604C25.9173 11.5836 26.1342 11.5116 26.2907 11.3595L26.8005 10.8661L27.1764 9.77185C26.8566 9.33293 26.7483 8.75165 26.9379 8.19933C27.2597 7.26306 28.3107 6.77916 29.2454 7.16256C30.0506 7.49245 30.4887 8.38808 30.253 9.22153C30.1032 9.75239 29.7241 10.15 29.2576 10.3468L28.8415 11.5594L28.9364 12.2276C28.969 12.4573 29.1054 12.6579 29.3047 12.7782C29.9746 13.1847 30.5899 13.6817 31.1301 14.2562C31.3116 14.4496 31.5824 14.5325 31.8427 14.4801L33.1825 14.2111L34.6961 13.3717C34.7039 12.6274 35.1017 11.9079 35.8019 11.5195C36.8606 10.9326 38.2014 11.327 38.7655 12.4024C39.2748 13.3725 38.9551 14.592 38.0327 15.1892C37.3124 15.6547 36.4335 15.6377 35.7551 15.2402L34.2325 16.084L33.3823 16.9871C33.1541 17.2294 33.0728 17.572 33.1599 17.8928C33.1604 17.8947 33.1607 17.896 33.1612 17.8979C33.3102 18.4507 33.4006 19.0063 33.438 19.557C33.4597 19.8851 33.6454 20.1803 33.9362 20.3371L35.0459 20.9353L37.2454 21.35C37.6331 21.0124 38.1672 20.8491 38.713 20.9515C39.6915 21.1363 40.3215 22.1048 40.0708 23.0797C39.8551 23.9145 39.0325 24.4703 38.1723 24.3609C37.5857 24.2863 37.1121 23.9338 36.8578 23.4598L34.6441 23.0427L33.2787 23.2089C33.027 23.24 32.8072 23.3975 32.7046 23.628C32.296 24.5379 31.7323 25.3748 31.0363 26.0973C30.8634 26.2768 30.7985 26.5338 30.8613 26.7744L31.2006 28.0843L32.0384 29.3942C32.9599 29.2563 33.9188 29.6536 34.4508 30.4856C35.1659 31.6034 34.8415 33.0834 33.7285 33.8046C32.6161 34.5257 31.1023 34.2119 30.3732 33.1081C29.8627 32.3353 29.8571 31.382 30.2709 30.6257L29.3815 29.2354L28.288 28.3384C28.1261 28.2048 27.9054 28.1695 27.7078 28.2397C27.4885 28.3178 27.2649 28.3876 27.0362 28.4485C25.7935 28.7796 24.5406 28.8223 23.3489 28.6198C23.1742 28.5905 22.9955 28.6402 22.8619 28.7557L22.2751 29.2642L21.8386 30.336C22.1339 30.7923 22.2093 31.3783 21.9894 31.919C21.6156 32.8366 20.5392 33.2616 19.6276 32.8274C18.8425 32.4535 18.4548 31.535 18.7366 30.7157C18.916 30.1939 19.3158 29.8178 19.7928 29.6473L20.2763 28.4594L20.1865 27.4161C19.3146 26.8717 18.5388 26.1731 17.9044 25.3474L16.4132 25.4942L15.0175 26.1823C15.0266 27.1158 14.5448 28.0039 13.6992 28.4338C12.5043 29.0407 11.0365 28.5034 10.4212 27.2331C9.80604 25.9634 10.2752 24.4421 11.4701 23.8352C12.3643 23.3809 13.4107 23.5673 14.1388 24.2224L15.455 23.573L16.3685 22.5962C16.4282 22.5323 16.4503 22.4424 16.4276 22.3584L16.4273 22.3571C16.0051 20.7902 16.0482 19.2063 16.4718 17.7506C16.4945 17.6707 16.4774 17.5846 16.4235 17.521L15.6355 16.5826L13.9376 15.6942C13.4699 15.8994 12.9155 15.8988 12.4279 15.6434C11.5471 15.182 11.2297 14.0748 11.7548 13.2157C12.2157 12.4624 13.1975 12.1764 13.9947 12.5626C14.5107 12.8124 14.8436 13.2797 14.942 13.7966L16.6399 14.6849L17.8484 14.7983C17.9323 14.8064 18.0141 14.7711 18.0674 14.7061C18.6155 14.0312 19.268 13.4354 20.0092 12.9467C20.2126 12.8119 20.339 12.5886 20.3422 12.3453L20.3547 11.2518L19.881 9.96133C18.8541 9.88759 17.9251 9.26768 17.557 8.30058C17.0509 6.97071 17.7959 5.48757 19.2208 4.98869Z" fill="#27D2C8"/>
<path d="M30.9898 18.4765C30.0729 15.0737 26.5559 13.0542 23.1342 13.966C19.7125 14.8778 17.6819 18.3756 18.5988 21.7785C19.5156 25.1813 23.0327 27.2008 26.4543 26.289C29.876 25.3772 31.9066 21.8794 30.9898 18.4765Z" fill="#1E9C9C"/>
<path d="M25.9484 24.4109C22.8476 25.2372 19.6687 23.6565 18.4173 20.8204C18.4527 21.1391 18.5128 21.4592 18.5988 21.7785C19.5156 25.1814 23.0326 27.2008 26.4543 26.289C29.8761 25.3771 31.9066 21.8795 30.9898 18.4765C30.9037 18.1573 30.7949 17.8502 30.6653 17.5566C31.0073 20.635 29.049 23.5847 25.9484 24.4109Z" fill="#85EFE9"/>
<path d="M16.324 33.496C16.0629 32.5269 15.0614 31.9518 14.087 32.2115C13.1126 32.4711 12.5343 33.4672 12.7954 34.4362C13.0565 35.4053 14.0581 35.9804 15.0325 35.7207C16.0069 35.4611 16.5851 34.465 16.324 33.496Z" fill="#27D2C8"/>
<path d="M39.1106 27.9379C38.9381 27.2979 38.2766 26.918 37.633 27.0895C36.9894 27.261 36.6074 27.9189 36.7799 28.559C36.9523 29.1991 37.6139 29.5789 38.2575 29.4074C38.9011 29.2359 39.283 28.578 39.1106 27.9379Z" fill="#27D2C8"/>
<path d="M35.8429 6.00213C35.5889 5.05936 34.6145 4.49988 33.6665 4.75249C32.7185 5.0051 32.1559 5.97416 32.4099 6.91693C32.6639 7.8597 33.6383 8.41918 34.5863 8.16656C35.5343 7.91395 36.0969 6.9449 35.8429 6.00213Z" fill="#27D2C8"/>
<path d="M25.1955 22.0477C24.9587 21.1687 24.0502 20.6471 23.1664 20.8826C22.2826 21.1181 21.7581 22.0216 21.9949 22.9005C22.2318 23.7795 23.1402 24.3011 24.024 24.0656C24.9078 23.8301 25.4323 22.9266 25.1955 22.0477Z" fill="#27D2C8"/>
<path d="M29.3108 19.5818C29.1496 18.9835 28.5313 18.6285 27.9297 18.7888C27.3281 18.9491 26.9711 19.564 27.1323 20.1623C27.2935 20.7606 27.9119 21.1156 28.5134 20.9553C29.115 20.795 29.472 20.18 29.3108 19.5818Z" fill="#27D2C8"/>
<path d="M24.9578 17.0961C24.8224 16.5937 24.3032 16.2956 23.7981 16.4302C23.2929 16.5648 22.9931 17.0812 23.1285 17.5835C23.2639 18.0859 23.7831 18.384 24.2882 18.2494C24.7934 18.1148 25.0932 17.5984 24.9578 17.0961Z" fill="#27D2C8"/>
</svg>
